<svg
   xmlns:dc="http://purl.org/dc/elements/1.1/"
   xmlns:cc="http://creativecommons.org/ns#"
   xmlns:rdf="http://www.w3.org/1999/02/22-rdf-syntax-ns#"
   xmlns:svg="http://www.w3.org/2000/svg"
   xmlns="http://www.w3.org/2000/svg"
   xmlns:xlink="http://www.w3.org/1999/xlink"
   version="1.0"
   width="370"
   height="370"
   id="svg2">
  <defs
     id="defs4">
    <linearGradient
       id="linearGradient3273">
      <stop
         id="stop3275"
         style="stop-color:#6c6c6c;stop-opacity:1"
         offset="0" />
      <stop
         id="stop3277"
         style="stop-color:#3e3e3e;stop-opacity:1"
         offset="1" />
    </linearGradient>
    <linearGradient
       id="linearGradient3263">
      <stop
         id="stop3265"
         style="stop-color:#f7f7f7;stop-opacity:1"
         offset="0" />
      <stop
         id="stop3267"
         style="stop-color:#e1e1e1;stop-opacity:1"
         offset="1" />
    </linearGradient>
    <linearGradient
       id="linearGradient3153">
      <stop
         id="stop3155"
         style="stop-color:#ffffff;stop-opacity:1"
         offset="0" />
      <stop
         id="stop3157"
         style="stop-color:#ffffff;stop-opacity:0"
         offset="1" />
    </linearGradient>
    <radialGradient
       cx="289.42923"
       cy="209.66924"
       r="92.5"
       fx="289.42923"
       fy="209.66924"
       id="radialGradient3185"
       xlink:href="#linearGradient3153"
       gradientUnits="userSpaceOnUse"
       gradientTransform="matrix(0.8695893,-0.8695893,1.9614862,1.9614862,-282.22915,214.70245)" />
    <radialGradient
       cx="289.42923"
       cy="209.66924"
       r="92.5"
       fx="289.42923"
       fy="209.66924"
       id="radialGradient3195"
       xlink:href="#linearGradient3153"
       gradientUnits="userSpaceOnUse"
       gradientTransform="matrix(-0.8695893,0.8695893,-1.9614862,-1.9614862,680.79165,170.98505)" />
    <radialGradient
       cx="199.28125"
       cy="192.84375"
       r="53.6875"
       fx="199.28125"
       fy="192.84375"
       id="radialGradient3269"
       xlink:href="#linearGradient3263"
       gradientUnits="userSpaceOnUse"
       gradientTransform="matrix(2.0314181,2.0314181,-0.7071068,0.7071068,-69.181174,-348.34092)" />
    <radialGradient
       cx="199.28125"
       cy="192.84375"
       r="68.84375"
       fx="199.28125"
       fy="192.84375"
       id="radialGradient3281"
       xlink:href="#linearGradient3273"
       gradientUnits="userSpaceOnUse"
       gradientTransform="matrix(1.9644944,1.9644944,-0.5825701,0.5825701,-79.860647,-310.98815)" />
    <radialGradient
       cx="199.28125"
       cy="192.84375"
       r="53.6875"
       fx="199.28125"
       fy="192.84375"
       id="radialGradient3285"
       xlink:href="#linearGradient3263"
       gradientUnits="userSpaceOnUse"
       gradientTransform="matrix(0.1967634,0.1967634,-0.06849045,0.06849045,173.27795,140.42454)" />
    <radialGradient
       cx="289.42923"
       cy="209.66924"
       r="92.5"
       fx="289.42923"
       fy="209.66924"
       id="radialGradient3301"
       xlink:href="#linearGradient3153"
       gradientUnits="userSpaceOnUse"
       gradientTransform="matrix(0.8695893,-0.8695893,1.9614862,1.9614862,-282.22915,214.70245)" />
    <radialGradient
       cx="289.42923"
       cy="209.66924"
       r="92.5"
       fx="289.42923"
       fy="209.66924"
       id="radialGradient3303"
       xlink:href="#linearGradient3153"
       gradientUnits="userSpaceOnUse"
       gradientTransform="matrix(-0.8695893,0.8695893,-1.9614862,-1.9614862,680.79165,170.98505)" />
    <radialGradient
       cx="199.28125"
       cy="192.84375"
       r="68.84375"
       fx="199.28125"
       fy="192.84375"
       id="radialGradient3305"
       xlink:href="#linearGradient3273"
       gradientUnits="userSpaceOnUse"
       gradientTransform="matrix(1.9644944,1.9644944,-0.5825701,0.5825701,-79.860647,-310.98815)" />
    <radialGradient
       cx="199.28125"
       cy="192.84375"
       r="53.6875"
       fx="199.28125"
       fy="192.84375"
       id="radialGradient3307"
       xlink:href="#linearGradient3263"
       gradientUnits="userSpaceOnUse"
       gradientTransform="matrix(2.0314181,2.0314181,-0.7071068,0.7071068,-69.181174,-348.34092)" />
    <filter
       color-interpolation-filters="sRGB"
       id="filter3315">
      <feGaussianBlur
         id="feGaussianBlur3317"
         stdDeviation="3.7000001" />
    </filter>
    <radialGradient
       cx="199.28125"
       cy="192.84375"
       r="53.6875"
       fx="199.28125"
       fy="192.84375"
       id="radialGradient3322"
       xlink:href="#linearGradient3263"
       gradientUnits="userSpaceOnUse"
       gradientTransform="matrix(2.0314181,2.0314181,-0.7071068,0.7071068,-68.462424,-341.18467)" />
    <radialGradient
       cx="199.28125"
       cy="192.84375"
       r="68.84375"
       fx="199.28125"
       fy="192.84375"
       id="radialGradient3325"
       xlink:href="#linearGradient3273"
       gradientUnits="userSpaceOnUse"
       gradientTransform="matrix(1.9644944,1.9644944,-0.5825701,0.5825701,-79.141897,-303.8319)" />
    <radialGradient
       cx="289.42923"
       cy="209.66924"
       r="92.5"
       fx="289.42923"
       fy="209.66924"
       id="radialGradient3328"
       xlink:href="#linearGradient3153"
       gradientUnits="userSpaceOnUse"
       gradientTransform="matrix(-0.8695893,0.8695893,-1.9614862,-1.9614862,681.5104,178.1413)" />
    <radialGradient
       cx="289.42923"
       cy="209.66924"
       r="92.5"
       fx="289.42923"
       fy="209.66924"
       id="radialGradient3331"
       xlink:href="#linearGradient3153"
       gradientUnits="userSpaceOnUse"
       gradientTransform="matrix(0.8695893,-0.8695893,1.9614862,1.9614862,-281.5104,221.8587)" />
    <radialGradient
       cx="199.28125"
       cy="192.84375"
       r="68.84375"
       fx="199.28125"
       fy="192.84375"
       id="radialGradient3342"
       xlink:href="#linearGradient3273"
       gradientUnits="userSpaceOnUse"
       gradientTransform="matrix(1.9644944,1.9644944,-0.5825701,0.5825701,-79.141897,-303.8319)" />
    <radialGradient
       cx="199.28125"
       cy="192.84375"
       r="53.6875"
       fx="199.28125"
       fy="192.84375"
       id="radialGradient3344"
       xlink:href="#linearGradient3263"
       gradientUnits="userSpaceOnUse"
       gradientTransform="matrix(2.0314181,2.0314181,-0.7071068,0.7071068,-68.462424,-341.18467)" />
    <radialGradient
       cx="199.28125"
       cy="192.84375"
       r="53.6875"
       fx="199.28125"
       fy="192.84375"
       id="radialGradient3349"
       xlink:href="#linearGradient3263"
       gradientUnits="userSpaceOnUse"
       gradientTransform="matrix(0,2.8728591,-1.0000001,0,392.84375,-372.50696)" />
    <radialGradient
       cx="199.28125"
       cy="192.84375"
       r="68.84375"
       fx="199.28125"
       fy="192.84375"
       id="radialGradient3352"
       xlink:href="#linearGradient3273"
       gradientUnits="userSpaceOnUse"
       gradientTransform="matrix(0,2.7782147,-0.8238786,0,358.87983,-353.64609)" />
  </defs>
  <metadata
     id="metadata7">
    <rdf:RDF>
      <cc:Work
         rdf:about="">
        <dc:format>image/svg+xml</dc:format>
        <dc:type
           rdf:resource="http://purl.org/dc/dcmitype/StillImage" />
        <dc:title></dc:title>
      </cc:Work>
    </rdf:RDF>
  </metadata>
  <g
     transform="translate(-15,-15)"
     id="layer2"
     style="display:inline">
    <path
       d="M 200,15 C 97.88,15 15,97.88 15,200 15,302.12 97.88,385 200,385 302.12,385 385.00002,302.12 385,200 385,97.88 302.12,15 200,15 z m 0,179.8125 c 2.86645,0 5.18749,2.32105 5.1875,5.1875 0,2.86645 -2.32105,5.18749 -5.1875,5.1875 -2.86645,0 -5.18749,-2.32105 -5.1875,-5.1875 0,-2.86645 2.32105,-5.18749 5.1875,-5.1875 z"
       id="path3191"
       style="color:#000000;fill:#000000;fill-opacity:1;fill-rule:evenodd;stroke:none;stroke-width:2.70000005;marker:none;visibility:visible;display:inline;overflow:visible;enable-background:accumulate" />
    <path
       d="m 200,132.65625 c -37.15925,0 -67.34375,30.1845 -67.34375,67.34375 0,37.15925 30.1845,67.34375 67.34375,67.34375 37.15925,0 67.34375,-30.1845 67.34375,-67.34375 0,-37.15925 -30.1845,-67.34375 -67.34375,-67.34375 z m 0,62.90625 c 2.45408,0 4.4375,1.98342 4.4375,4.4375 0,2.45408 -1.98342,4.4375 -4.4375,4.4375 -2.45408,0 -4.4375,-1.98342 -4.4375,-4.4375 0,-2.45408 1.98342,-4.4375 4.4375,-4.4375 z"
       id="path3271"
       style="color:#000000;fill:#333333;fill-opacity:1;fill-rule:evenodd;stroke:none;stroke-width:2.70000005;marker:none;visibility:visible;display:inline;overflow:visible;enable-background:accumulate" />
    <path
       d="M 200,15 C 97.88,15 15,97.88 15,200 15,302.12 97.88,385 200,385 302.12,385 385.00002,302.12 385,200 385,97.88 302.12,15 200,15 z m 0,3.59375 C 300.14858,18.59375 381.4375,99.851427 381.4375,200 381.43751,300.14858 300.14857,381.4375 200,381.4375 99.85143,381.43749 18.5625,300.14857 18.5625,200 18.562501,99.85143 99.851427,18.59375 200,18.59375 z"
       id="path3176"
       style="color:#000000;fill:#000000;fill-opacity:1;fill-rule:evenodd;stroke:none;stroke-width:2.70000005;marker:none;visibility:visible;display:inline;overflow:visible;enable-background:accumulate" />
    <path
       d="m 293.5625,200 c 0,51.65143 -41.91107,93.59375 -93.5625,93.59375 l 0,87.84375 c 100.14857,0 181.43751,-81.28892 181.4375,-181.4375 l -87.875,0 z"
       id="path3151"
       style="color:#000000;fill:url(#radialGradient3331);fill-opacity:1;fill-rule:evenodd;stroke:none;stroke-width:2.70000005;marker:none;visibility:visible;display:inline;overflow:visible;enable-background:accumulate" />
    <path
       d="m 106.4375,200 c 0,-51.65143 41.91107,-93.59375 93.5625,-93.59375 L 200,18.5625 C 99.85143,18.5625 18.56249,99.85142 18.5625,200 l 87.875,0 z"
       id="path3193"
       style="color:#000000;fill:url(#radialGradient3328);fill-opacity:1;fill-rule:evenodd;stroke:none;stroke-width:2.70000005;marker:none;visibility:visible;display:inline;overflow:visible;enable-background:accumulate" />
    <path
       d="m 248.67988,151.32012 c -26.86689,-26.86689 -70.49287,-26.86689 -97.35976,0 -26.86689,26.86689 -26.86689,70.49288 0,97.35977 26.86689,26.86689 70.49287,26.86689 97.35976,0 26.86689,-26.86689 26.86689,-70.49288 0,-97.35977 z m -2.14341,2.14342 c 25.68403,25.68404 25.68404,67.38891 0,93.07293 -25.68404,25.68404 -67.38891,25.68405 -93.07294,0 -25.68403,-25.68403 -25.68402,-67.38889 0,-93.07293 25.68404,-25.68403 67.3889,-25.68403 93.07294,0 z"
       id="path3215"
       style="color:#000000;fill:url(#radialGradient3352);fill-opacity:1;fill-rule:evenodd;stroke:none;stroke-width:2.70000005;marker:none;visibility:visible;display:inline;overflow:visible;enable-background:accumulate" />
    <path
       d="m 237.9628,162.03721 c -20.95262,-20.9526 -54.97299,-20.95261 -75.9256,0 -20.9526,20.95262 -20.9526,54.97299 0,75.92559 20.95262,20.9526 54.97299,20.95261 75.9256,0 20.9526,-20.95261 20.9526,-54.97298 0,-75.92559 z m -34.29468,34.29468 c 2.02688,2.02689 2.02688,5.30934 0,7.33623 -2.02689,2.02689 -5.30934,2.02688 -7.33624,0 -2.02688,-2.02688 -2.02688,-5.30934 0,-7.33623 2.02689,-2.02688 5.30934,-2.02688 7.33624,0 z"
       id="path3223"
       style="color:#000000;fill:url(#radialGradient3349);fill-opacity:1;fill-rule:evenodd;stroke:none;stroke-width:2.70000005;marker:none;visibility:visible;display:inline;overflow:visible;enable-background:accumulate" />
    <path
       d="m 243.95111,156.0489 c -7.06177,-7.06176 -15.40617,-12.05335 -24.2847,-15.00392 l -1.23744,3.71231 c 8.31532,2.76444 16.12455,7.46249 22.7379,14.07584 8.05626,8.05626 13.25594,17.88433 15.60055,28.24008 l 3.82279,-0.86178 c -2.50205,-11.05558 -8.03761,-21.56103 -16.6391,-30.16253 z"
       id="path3230"
       style="opacity:0.7425743;color:#000000;fill:#ffffff;fill-opacity:1;fill-rule:evenodd;stroke:none;stroke-width:2.70000005;marker:none;visibility:visible;display:inline;overflow:visible;enable-background:accumulate" />
    <path
       d="m 142.61386,190.25519 -3.88908,-0.66291 c -3.23715,19.17313 2.53847,39.5732 17.32411,54.35884 14.74595,14.74593 35.07597,20.5264 54.20416,17.34621 l -0.64082,-3.86699 c -17.92511,2.98388 -36.96183,-2.44619 -50.7791,-16.26346 -13.85228,-13.85228 -19.25338,-32.94694 -16.21927,-50.91169 z"
       id="path3232"
       style="opacity:0.7425743;color:#000000;fill:#ffffff;fill-opacity:1;fill-rule:evenodd;stroke:none;stroke-width:2.70000005;marker:none;visibility:visible;display:inline;overflow:visible;enable-background:accumulate" />
  </g>
</svg>
